<svg width="29" height="26" viewBox="0 0 29 26" fill="none" xmlns="http://www.w3.org/2000/svg">
<path fill-rule="evenodd" clip-rule="evenodd" d="M18.9713 25.6567L17.5878 24.0096C20.289 23.2849 21.3431 21.4402 21.3431 21.4402C17.9172 24.6684 8.56177 24.8002 4.9382 21.4402C4.9382 21.4402 5.86056 23.1531 8.62765 24.0096L7.11234 25.6567C2.50052 25.5908 0.72168 22.4943 0.72168 22.4943C0.72168 15.6424 3.7523 10.1741 3.7523 10.1741C6.84881 8 9.68178 8 9.68178 8L9.87943 8.26353C6.05821 9.31766 4.41113 11.0306 4.41113 11.0306C8.89118 8 18.1148 8.26353 21.7384 11.0306C21.8043 10.9647 19.5642 9.1859 16.0724 8.26353L16.4019 8C16.4019 8 19.2348 8 22.3313 10.1741C22.3313 10.1741 25.362 15.6424 25.362 22.4943C25.362 22.4943 23.5831 25.5908 18.9713 25.6567ZM9.08886 20.5176C10.2896 20.5176 11.263 19.4852 11.263 18.2117C11.263 16.9382 10.2896 15.9058 9.08886 15.9058C7.88811 15.9058 6.91472 16.9382 6.91472 18.2117C6.91472 19.4852 7.88811 20.5176 9.08886 20.5176ZM18.9052 18.2117C18.9052 19.4852 17.9318 20.5176 16.731 20.5176C15.5303 20.5176 14.5569 19.4852 14.5569 18.2117C14.5569 16.9382 15.5303 15.9058 16.731 15.9058C17.9318 15.9058 18.9052 16.9382 18.9052 18.2117Z" fill="#F4D45D"/>
<path d="M27.8847 4.9455L27.8801 4.9545C27.8983 4.806 27.9165 4.653 27.9165 4.5C27.9165 4.347 27.9029 4.203 27.8847 4.0545L27.8892 4.0635L29 3.1995L27.8938 1.3005L26.5873 1.8225L26.5918 1.827C26.3551 1.647 26.0956 1.494 25.8134 1.377H25.8179L25.6085 0H23.3915L23.1912 1.3815H23.1958C22.9135 1.4985 22.654 1.6515 22.4173 1.8315L22.4219 1.827L21.1108 1.3005L20 3.1995L21.1108 4.0635L21.1153 4.0545C21.0971 4.203 21.0835 4.347 21.0835 4.5C21.0835 4.653 21.0971 4.806 21.1199 4.9545L21.1153 4.9455L20.1593 5.688L20.0091 5.805L21.1153 7.695L22.4264 7.1775L22.4173 7.1595C22.6586 7.344 22.9181 7.497 23.2049 7.614H23.1912L23.3961 9H25.6039C25.6039 9 25.6176 8.919 25.6313 8.811L25.8042 7.6185H25.7997C26.0819 7.5015 26.346 7.3485 26.5873 7.164L26.5781 7.182L27.8892 7.6995L28.9954 5.8095C28.9954 5.8095 28.9317 5.7555 28.8452 5.6925L27.8847 4.9455V4.9455ZM24.4977 6.075C23.6191 6.075 22.9044 5.3685 22.9044 4.5C22.9044 3.6315 23.6191 2.925 24.4977 2.925C25.3763 2.925 26.091 3.6315 26.091 4.5C26.091 5.3685 25.3763 6.075 24.4977 6.075Z" fill="#F4D45D"/>
</svg>
